2010.06.26-MotoGP.07.Holland.Race.BBCi_UK-TDMK1.m4v

The Dutch Grand Prix. Round six of the season, staged at the TT Circuit Assen, where Valentino Rossi won last year for the fifth time in eight campaigns. Presented by Jennie Gow.

MP4 - 640x352 - 800Kb/s H264 Video - 44.1KHz/128Kbps Stereo AAC Audio

My belief is this is the best all round setup, and hopefully you will agree!

This video will play on a computer with VLC, XBMC, XBox360, PS3, all iPhones & iPad - enjoy the show... :)

General
Complete name                    : 2010.06.26-MotoGP.07.Holland.Race.BBCi_UK-TDMK1.m4v
Format                           : MPEG-4
Format profile                   : Base Media / Version 2
Codec ID                         : mp42
File size                        : 538 MiB
Duration                         : 1h 21mn
Overall bit rate                 : 927 Kbps
Encoded date                     : UTC 2010-06-26 17:18:13
Tagged date                      : UTC 2010-06-26 18:31:32
Writing application              : HandBrake 0.9.4 2009112300

Video
ID                               : 1
Format                           : AVC
Format/Info                      : Advanced Video Codec
Format profile                   : Main@L2.1
Format settings, CABAC           : Yes
Format settings, ReFrames        : 2 frames
Codec ID                         : avc1
Codec ID/Info                    : Advanced Video Coding
Duration                         : 1h 21mn
Bit rate mode                    : Variable
Bit rate                         : 800 Kbps
Width                            : 544 pixels
Height                           : 304 pixels
Display aspect ratio             : 16:9
Frame rate mode                  : Variable
Frame rate                       : 25.000 fps
Minimum frame rate               : 12.498 fps
Maximum frame rate               : 25.000 fps
Color space                      : YUV
Chroma subsampling               : 4:2:0
Bit depth                        : 8 bits
Scan type                        : Progressive
Bits/(Pixel*Frame)               : 0.193
Stream size                      : 461 MiB (86%)
Writing library                  : x264 core 79
Encoding settings                : cabac=1 / ref=2 / deblock=1:0:0 / analyse=0x1:0x111 / me=hex / subme=6 / psy=1 / psy_rd=1.0:0.0 / mixed_ref=0 / me_range=16 / chroma_me=1 / trellis=0 / 8x8dct=0 / cqm=0 / deadzone=21,11 / chroma_qp_offset=-2 / threads=6 / nr=0 / decimate=1 / mbaff=0 / constrained_intra=0 / bframes=2 / b_pyramid=0 / b_adapt=1 / b_bias=0 / direct=1 / wpredb=0 / wpredp=2 / keyint=250 / keyint_min=25 / scenecut=40 / rc_lookahead=40 / rc=abr / mbtree=1 / bitrate=800 / ratetol=1.0 / qcomp=0.60 / qpmin=10 / qpmax=51 / qpstep=4 / ip_ratio=1.40 / aq=1:1.00
Encoded date                     : UTC 2010-06-26 17:18:13
Tagged date                      : UTC 2010-06-26 18:31:32
Color primaries                  : BT.601-6 525, BT.1358 525, BT.1700 NTSC, SMPTE 170M
Transfer characteristics         : BT.709-5, BT.1361
Matrix coefficients              : BT.601-6 525, BT.1358 525, BT.1700 NTSC, SMPTE 170M

Audio
ID                               : 2
Format                           : AAC
Format/Info                      : Advanced Audio Codec
Format version                   : Version 4
Format profile                   : LC
Format settings, SBR             : No
Codec ID                         : 40
Duration                         : 1h 21mn
Bit rate mode                    : Variable
Bit rate                         : 128 Kbps
Maximum bit rate                 : 193 Kbps
Channel(s)                       : 2 channels
Channel positions                : Front: L R
Sampling rate                    : 44.1 KHz
Stream size                      : 74.2 MiB (14%)
Language                         : English
Encoded date                     : UTC 2010-06-26 17:18:13
Tagged date                      : UTC 2010-06-26 18:31:32

